<mxfile host="app.diagrams.net" agent="Mozilla/5.0 (Macintosh; Intel Mac OS X 10_15_7) AppleWebKit/537.36 (KHTML, like Gecko) Chrome/139.0.0.0 Safari/537.36" version="28.1.1" pages="2">
  <diagram name="Page-1" id="o_D-iumrtxdOxwP-De4W">
    <mxGraphModel grid="1" page="1" gridSize="10" guides="1" tooltips="1" connect="1" arrows="1" fold="1" pageScale="1" pageWidth="827" pageHeight="1169" math="0" shadow="0">
      <root>
        <mxCell id="0" />
        <mxCell id="1" parent="0" />
        <mxCell id="y_mK8Cx9q6hYA3p4OTCA-55" value="" style="rounded=0;whiteSpace=wrap;html=1;fillColor=#f5f5f5;strokeColor=#666666;fontColor=#333333;" vertex="1" parent="1">
          <mxGeometry x="-20" y="430" width="2150" height="210" as="geometry" />
        </mxCell>
        <mxCell id="y_mK8Cx9q6hYA3p4OTCA-54" value="" style="rounded=0;whiteSpace=wrap;html=1;fillColor=#f5f5f5;strokeColor=#666666;fontColor=#333333;" vertex="1" parent="1">
          <mxGeometry x="-20" y="260" width="2150" height="170" as="geometry" />
        </mxCell>
        <mxCell id="y_mK8Cx9q6hYA3p4OTCA-49" style="edgeStyle=orthogonalEdgeStyle;rounded=0;orthogonalLoop=1;jettySize=auto;html=1;entryX=0;entryY=0.5;entryDx=0;entryDy=0;" edge="1" parent="1" source="y_mK8Cx9q6hYA3p4OTCA-1" target="y_mK8Cx9q6hYA3p4OTCA-2">
          <mxGeometry relative="1" as="geometry" />
        </mxCell>
        <mxCell id="y_mK8Cx9q6hYA3p4OTCA-1" value="Business &amp;amp; Data Understanding" style="rounded=0;whiteSpace=wrap;html=1;fillColor=#f5f5f5;strokeColor=#666666;gradientColor=#b3b3b3;" vertex="1" parent="1">
          <mxGeometry x="-20" y="220" width="340" height="40" as="geometry" />
        </mxCell>
        <mxCell id="y_mK8Cx9q6hYA3p4OTCA-50" style="edgeStyle=orthogonalEdgeStyle;rounded=0;orthogonalLoop=1;jettySize=auto;html=1;entryX=0;entryY=0.5;entryDx=0;entryDy=0;" edge="1" parent="1" source="y_mK8Cx9q6hYA3p4OTCA-2" target="y_mK8Cx9q6hYA3p4OTCA-3">
          <mxGeometry relative="1" as="geometry" />
        </mxCell>
        <mxCell id="y_mK8Cx9q6hYA3p4OTCA-2" value="Data Engineering &amp;amp; Preparation" style="rounded=0;whiteSpace=wrap;html=1;fillColor=#f5f5f5;strokeColor=#666666;gradientColor=#b3b3b3;" vertex="1" parent="1">
          <mxGeometry x="350" y="220" width="330" height="40" as="geometry" />
        </mxCell>
        <mxCell id="y_mK8Cx9q6hYA3p4OTCA-51" style="edgeStyle=orthogonalEdgeStyle;rounded=0;orthogonalLoop=1;jettySize=auto;html=1;entryX=0;entryY=0.5;entryDx=0;entryDy=0;" edge="1" parent="1" source="y_mK8Cx9q6hYA3p4OTCA-3" target="y_mK8Cx9q6hYA3p4OTCA-39">
          <mxGeometry relative="1" as="geometry" />
        </mxCell>
        <mxCell id="y_mK8Cx9q6hYA3p4OTCA-3" value="Model Development &amp;amp; Experimentation" style="rounded=0;whiteSpace=wrap;html=1;fillColor=#f5f5f5;strokeColor=#666666;gradientColor=#b3b3b3;" vertex="1" parent="1">
          <mxGeometry x="710" y="220" width="330" height="40" as="geometry" />
        </mxCell>
        <mxCell id="y_mK8Cx9q6hYA3p4OTCA-5" value="1. Project Management" style="rounded=0;whiteSpace=wrap;html=1;align=center;" vertex="1" parent="1">
          <mxGeometry x="-10" y="270" width="330" height="40" as="geometry" />
        </mxCell>
        <mxCell id="y_mK8Cx9q6hYA3p4OTCA-6" value="Key Steps" style="rounded=0;whiteSpace=wrap;html=1;rotation=-90;fillColor=#f5f5f5;strokeColor=#666666;gradientColor=#b3b3b3;" vertex="1" parent="1">
          <mxGeometry x="-126.1" y="319.29" width="167.89" height="44.38" as="geometry" />
        </mxCell>
        <mxCell id="y_mK8Cx9q6hYA3p4OTCA-7" value="2. Data Sourcing &amp;amp; Analysis (Data Exploration &amp;amp; Visualization)" style="rounded=0;whiteSpace=wrap;html=1;fillColor=#d5e8d4;strokeColor=#82b366;" vertex="1" parent="1">
          <mxGeometry x="-10" y="320" width="330" height="40" as="geometry" />
        </mxCell>
        <mxCell id="y_mK8Cx9q6hYA3p4OTCA-8" value="3. Data Annotation (for unstructured data)" style="rounded=0;whiteSpace=wrap;html=1;fillColor=#dae8fc;strokeColor=#6c8ebf;" vertex="1" parent="1">
          <mxGeometry x="-10" y="370" width="330" height="40" as="geometry" />
        </mxCell>
        <mxCell id="y_mK8Cx9q6hYA3p4OTCA-9" value="1. Jira or Trello" style="rounded=0;whiteSpace=wrap;html=1;" vertex="1" parent="1">
          <mxGeometry x="-10" y="440" width="330" height="40" as="geometry" />
        </mxCell>
        <mxCell id="y_mK8Cx9q6hYA3p4OTCA-10" value="2. Python, Pandas, Matplotlib, Seaborn" style="rounded=0;whiteSpace=wrap;html=1;" vertex="1" parent="1">
          <mxGeometry x="-10" y="490" width="330" height="40" as="geometry" />
        </mxCell>
        <mxCell id="y_mK8Cx9q6hYA3p4OTCA-11" value="3. Label Studio, cvat, LabelMe" style="rounded=0;whiteSpace=wrap;html=1;" vertex="1" parent="1">
          <mxGeometry x="-10" y="540" width="330" height="40" as="geometry" />
        </mxCell>
        <mxCell id="y_mK8Cx9q6hYA3p4OTCA-13" value="1. Data Ingestion &amp;amp; ETL/ELT" style="rounded=0;whiteSpace=wrap;html=1;align=center;fillColor=#fff2cc;strokeColor=#d6b656;" vertex="1" parent="1">
          <mxGeometry x="350" y="270" width="330" height="40" as="geometry" />
        </mxCell>
        <mxCell id="y_mK8Cx9q6hYA3p4OTCA-14" value="2. Feature Engineering &amp;amp; Selection" style="rounded=0;whiteSpace=wrap;html=1;fillColor=#d5e8d4;strokeColor=#82b366;" vertex="1" parent="1">
          <mxGeometry x="350" y="320" width="330" height="40" as="geometry" />
        </mxCell>
        <mxCell id="y_mK8Cx9q6hYA3p4OTCA-15" value="3. Data Validation &amp;amp; Versioning" style="rounded=0;whiteSpace=wrap;html=1;fillColor=#dae8fc;strokeColor=#6c8ebf;" vertex="1" parent="1">
          <mxGeometry x="350" y="370" width="330" height="40" as="geometry" />
        </mxCell>
        <mxCell id="y_mK8Cx9q6hYA3p4OTCA-16" value="1. Apache Airflow" style="rounded=0;whiteSpace=wrap;html=1;" vertex="1" parent="1">
          <mxGeometry x="350" y="440" width="330" height="40" as="geometry" />
        </mxCell>
        <mxCell id="y_mK8Cx9q6hYA3p4OTCA-17" value="2. Apache Spark, Pandas, Polars" style="rounded=0;whiteSpace=wrap;html=1;" vertex="1" parent="1">
          <mxGeometry x="350" y="490" width="330" height="40" as="geometry" />
        </mxCell>
        <mxCell id="y_mK8Cx9q6hYA3p4OTCA-18" value="3. DVC (Data Version Control), Git LFS, LakeFS" style="rounded=0;whiteSpace=wrap;html=1;" vertex="1" parent="1">
          <mxGeometry x="350" y="540" width="330" height="40" as="geometry" />
        </mxCell>
        <mxCell id="y_mK8Cx9q6hYA3p4OTCA-19" value="1. Model Training" style="rounded=0;whiteSpace=wrap;html=1;align=center;fillColor=#d5e8d4;strokeColor=#82b366;" vertex="1" parent="1">
          <mxGeometry x="710" y="270" width="330" height="40" as="geometry" />
        </mxCell>
        <mxCell id="y_mK8Cx9q6hYA3p4OTCA-20" value="2. Experiment Tracking" style="rounded=0;whiteSpace=wrap;html=1;fillColor=#fff2cc;strokeColor=#d6b656;" vertex="1" parent="1">
          <mxGeometry x="710" y="320" width="330" height="40" as="geometry" />
        </mxCell>
        <mxCell id="y_mK8Cx9q6hYA3p4OTCA-21" value="3. Model Evaluation" style="rounded=0;whiteSpace=wrap;html=1;fillColor=#d5e8d4;strokeColor=#82b366;" vertex="1" parent="1">
          <mxGeometry x="710" y="370" width="330" height="40" as="geometry" />
        </mxCell>
        <mxCell id="y_mK8Cx9q6hYA3p4OTCA-22" value="1. Scikit-learn (classic ML), PyTorch, TensorFlow/Keras (Deep Learning), Hugging Face Transformers (LLMs)" style="rounded=0;whiteSpace=wrap;html=1;" vertex="1" parent="1">
          <mxGeometry x="710" y="440" width="330" height="40" as="geometry" />
        </mxCell>
        <mxCell id="y_mK8Cx9q6hYA3p4OTCA-23" value="2. MLflow, Weights &amp;amp; Biases (W&amp;amp;B), Comet ML" style="rounded=0;whiteSpace=wrap;html=1;" vertex="1" parent="1">
          <mxGeometry x="710" y="490" width="330" height="40" as="geometry" />
        </mxCell>
        <mxCell id="y_mK8Cx9q6hYA3p4OTCA-24" value="3. JupyterLab, VS Code, Google Colab" style="rounded=0;whiteSpace=wrap;html=1;" vertex="1" parent="1">
          <mxGeometry x="710" y="540" width="330" height="40" as="geometry" />
        </mxCell>
        <mxCell id="y_mK8Cx9q6hYA3p4OTCA-53" style="edgeStyle=orthogonalEdgeStyle;rounded=0;orthogonalLoop=1;jettySize=auto;html=1;entryX=0;entryY=0.5;entryDx=0;entryDy=0;" edge="1" parent="1" source="y_mK8Cx9q6hYA3p4OTCA-25" target="y_mK8Cx9q6hYA3p4OTCA-32">
          <mxGeometry relative="1" as="geometry" />
        </mxCell>
        <mxCell id="y_mK8Cx9q6hYA3p4OTCA-25" value="Model Deployment &amp;amp; Serving" style="rounded=0;whiteSpace=wrap;html=1;fillColor=#f5f5f5;strokeColor=#666666;gradientColor=#b3b3b3;" vertex="1" parent="1">
          <mxGeometry x="1430" y="220" width="330" height="40" as="geometry" />
        </mxCell>
        <mxCell id="y_mK8Cx9q6hYA3p4OTCA-26" value="1. Packaging &amp;amp; Containerization" style="rounded=0;whiteSpace=wrap;html=1;align=center;" vertex="1" parent="1">
          <mxGeometry x="1430" y="270" width="330" height="40" as="geometry" />
        </mxCell>
        <mxCell id="y_mK8Cx9q6hYA3p4OTCA-27" value="2. CI/CD Automation" style="rounded=0;whiteSpace=wrap;html=1;" vertex="1" parent="1">
          <mxGeometry x="1430" y="320" width="330" height="40" as="geometry" />
        </mxCell>
        <mxCell id="y_mK8Cx9q6hYA3p4OTCA-28" value="3. Inference Serving" style="rounded=0;whiteSpace=wrap;html=1;fillColor=#d5e8d4;strokeColor=#82b366;" vertex="1" parent="1">
          <mxGeometry x="1430" y="370" width="330" height="40" as="geometry" />
        </mxCell>
        <mxCell id="y_mK8Cx9q6hYA3p4OTCA-29" value="1. Docker, Kubernetes (K8s)" style="rounded=0;whiteSpace=wrap;html=1;" vertex="1" parent="1">
          <mxGeometry x="1430" y="440" width="330" height="40" as="geometry" />
        </mxCell>
        <mxCell id="y_mK8Cx9q6hYA3p4OTCA-30" value="2. GitHub Actions, GitLab CI/CD, Ansible" style="rounded=0;whiteSpace=wrap;html=1;" vertex="1" parent="1">
          <mxGeometry x="1430" y="490" width="330" height="40" as="geometry" />
        </mxCell>
        <mxCell id="y_mK8Cx9q6hYA3p4OTCA-31" value="3.&amp;nbsp;BentoML, Seldon Core, FastAPI, NVIDIA Triton Inference Server, KServe" style="rounded=0;whiteSpace=wrap;html=1;" vertex="1" parent="1">
          <mxGeometry x="1430" y="540" width="330" height="40" as="geometry" />
        </mxCell>
        <mxCell id="y_mK8Cx9q6hYA3p4OTCA-32" value="Model Monitoring &amp;amp; Retraining" style="rounded=0;whiteSpace=wrap;html=1;fillColor=#f5f5f5;strokeColor=#666666;gradientColor=#b3b3b3;" vertex="1" parent="1">
          <mxGeometry x="1790" y="220" width="340" height="40" as="geometry" />
        </mxCell>
        <mxCell id="y_mK8Cx9q6hYA3p4OTCA-33" value="1. Performance Monitoring" style="rounded=0;whiteSpace=wrap;html=1;align=center;" vertex="1" parent="1">
          <mxGeometry x="1790" y="270" width="330" height="40" as="geometry" />
        </mxCell>
        <mxCell id="y_mK8Cx9q6hYA3p4OTCA-34" value="2. Drift Detection" style="rounded=0;whiteSpace=wrap;html=1;fillColor=#dae8fc;strokeColor=#6c8ebf;" vertex="1" parent="1">
          <mxGeometry x="1790" y="320" width="330" height="40" as="geometry" />
        </mxCell>
        <mxCell id="y_mK8Cx9q6hYA3p4OTCA-35" value="3. Retraining &amp;amp; Feedback Loop" style="rounded=0;whiteSpace=wrap;html=1;" vertex="1" parent="1">
          <mxGeometry x="1790" y="370" width="330" height="40" as="geometry" />
        </mxCell>
        <mxCell id="y_mK8Cx9q6hYA3p4OTCA-36" value="1. Grafana, Kibana," style="rounded=0;whiteSpace=wrap;html=1;" vertex="1" parent="1">
          <mxGeometry x="1790" y="440" width="330" height="40" as="geometry" />
        </mxCell>
        <mxCell id="y_mK8Cx9q6hYA3p4OTCA-37" value="2. Evidently AI, NannyML, Fiddler AI" style="rounded=0;whiteSpace=wrap;html=1;" vertex="1" parent="1">
          <mxGeometry x="1790" y="490" width="330" height="40" as="geometry" />
        </mxCell>
        <mxCell id="y_mK8Cx9q6hYA3p4OTCA-38" value="3. Google Vertex AI Model Monitoring, Azure Machine Learning data drift monitors" style="rounded=0;whiteSpace=wrap;html=1;" vertex="1" parent="1">
          <mxGeometry x="1790" y="540" width="330" height="40" as="geometry" />
        </mxCell>
        <mxCell id="y_mK8Cx9q6hYA3p4OTCA-52" style="edgeStyle=orthogonalEdgeStyle;rounded=0;orthogonalLoop=1;jettySize=auto;html=1;entryX=0;entryY=0.5;entryDx=0;entryDy=0;" edge="1" parent="1" source="y_mK8Cx9q6hYA3p4OTCA-39" target="y_mK8Cx9q6hYA3p4OTCA-25">
          <mxGeometry relative="1" as="geometry" />
        </mxCell>
        <mxCell id="y_mK8Cx9q6hYA3p4OTCA-39" value="Model Validation &amp;amp; Governance" style="rounded=0;whiteSpace=wrap;html=1;fillColor=#f5f5f5;strokeColor=#666666;gradientColor=#b3b3b3;" vertex="1" parent="1">
          <mxGeometry x="1070" y="220" width="330" height="40" as="geometry" />
        </mxCell>
        <mxCell id="y_mK8Cx9q6hYA3p4OTCA-40" value="1. Robustness &amp;amp; Bias Testing" style="rounded=0;whiteSpace=wrap;html=1;align=center;fillColor=#fff2cc;strokeColor=#d6b656;" vertex="1" parent="1">
          <mxGeometry x="1070" y="270" width="330" height="40" as="geometry" />
        </mxCell>
        <mxCell id="y_mK8Cx9q6hYA3p4OTCA-41" value="2. Explainability &amp;amp; Interpretability" style="rounded=0;whiteSpace=wrap;html=1;fillColor=#dae8fc;strokeColor=#6c8ebf;" vertex="1" parent="1">
          <mxGeometry x="1070" y="320" width="330" height="40" as="geometry" />
        </mxCell>
        <mxCell id="y_mK8Cx9q6hYA3p4OTCA-42" value="3. Model Registration" style="rounded=0;whiteSpace=wrap;html=1;" vertex="1" parent="1">
          <mxGeometry x="1070" y="370" width="330" height="40" as="geometry" />
        </mxCell>
        <mxCell id="y_mK8Cx9q6hYA3p4OTCA-43" value="1. Great Expectations, Deepchecks" style="rounded=0;whiteSpace=wrap;html=1;" vertex="1" parent="1">
          <mxGeometry x="1070" y="440" width="330" height="40" as="geometry" />
        </mxCell>
        <mxCell id="y_mK8Cx9q6hYA3p4OTCA-44" value="2. SHAP (SHapley Additive exPlanations), LIME (Local Interpretable Model-agnostic Explanations)" style="rounded=0;whiteSpace=wrap;html=1;" vertex="1" parent="1">
          <mxGeometry x="1070" y="490" width="330" height="40" as="geometry" />
        </mxCell>
        <mxCell id="y_mK8Cx9q6hYA3p4OTCA-45" value="3. MLflow Model Registry, Vertex AI Model Registry," style="rounded=0;whiteSpace=wrap;html=1;" vertex="1" parent="1">
          <mxGeometry x="1070" y="540" width="330" height="40" as="geometry" />
        </mxCell>
        <mxCell id="y_mK8Cx9q6hYA3p4OTCA-48" value="Software, Frameworks &amp;amp; Tool" style="rounded=0;whiteSpace=wrap;html=1;rotation=-90;fillColor=#f5f5f5;strokeColor=#666666;gradientColor=#b3b3b3;" vertex="1" parent="1">
          <mxGeometry x="-147.09" y="508.71" width="209.89" height="44.38" as="geometry" />
        </mxCell>
        <mxCell id="y_mK8Cx9q6hYA3p4OTCA-56" value="INNER LOOP" style="html=1;shadow=0;dashed=0;align=center;verticalAlign=middle;shape=mxgraph.arrows2.twoWayArrow;dy=0.28;dx=26.52;strokeWidth=3;gradientColor=none;fontSize=14;fontStyle=1" vertex="1" parent="1">
          <mxGeometry x="-20" y="160" width="1420" height="30" as="geometry" />
        </mxCell>
        <mxCell id="y_mK8Cx9q6hYA3p4OTCA-57" value="OUTER LOOP" style="html=1;shadow=0;dashed=0;align=center;verticalAlign=middle;shape=mxgraph.arrows2.twoWayArrow;dy=0.28;dx=26.52;strokeWidth=3;fontSize=14;fontStyle=1;textShadow=0;labelBorderColor=none;labelBackgroundColor=none;" vertex="1" parent="1">
          <mxGeometry x="1430" y="160" width="700" height="30" as="geometry" />
        </mxCell>
        <mxCell id="onOAcV3LlrqwpJdiy-Jt-6" value="" style="group" connectable="0" vertex="1" parent="1">
          <mxGeometry x="-70" y="660" width="120" height="80" as="geometry" />
        </mxCell>
        <mxCell id="onOAcV3LlrqwpJdiy-Jt-1" value="Should" style="rounded=0;whiteSpace=wrap;html=1;fillColor=#dae8fc;strokeColor=#6c8ebf;movable=1;resizable=1;rotatable=1;deletable=1;editable=1;locked=0;connectable=1;" vertex="1" parent="onOAcV3LlrqwpJdiy-Jt-6">
          <mxGeometry x="60" y="20" width="60" height="20" as="geometry" />
        </mxCell>
        <mxCell id="onOAcV3LlrqwpJdiy-Jt-2" value="Could" style="rounded=0;whiteSpace=wrap;html=1;fillColor=#fff2cc;strokeColor=#d6b656;movable=1;resizable=1;rotatable=1;deletable=1;editable=1;locked=0;connectable=1;" vertex="1" parent="onOAcV3LlrqwpJdiy-Jt-6">
          <mxGeometry x="60" y="40" width="60" height="20" as="geometry" />
        </mxCell>
        <mxCell id="onOAcV3LlrqwpJdiy-Jt-3" value="Must" style="rounded=0;whiteSpace=wrap;html=1;fillColor=#d5e8d4;strokeColor=#82b366;movable=1;resizable=1;rotatable=1;deletable=1;editable=1;locked=0;connectable=1;" vertex="1" parent="onOAcV3LlrqwpJdiy-Jt-6">
          <mxGeometry x="60" width="60" height="20" as="geometry" />
        </mxCell>
        <mxCell id="onOAcV3LlrqwpJdiy-Jt-4" value="Won&#39;t" style="rounded=0;whiteSpace=wrap;html=1;fillColor=#f8cecc;strokeColor=#b85450;movable=1;resizable=1;rotatable=1;deletable=1;editable=1;locked=0;connectable=1;" vertex="1" parent="onOAcV3LlrqwpJdiy-Jt-6">
          <mxGeometry x="60" y="60" width="60" height="20" as="geometry" />
        </mxCell>
        <mxCell id="onOAcV3LlrqwpJdiy-Jt-5" value="Legend" style="text;html=1;align=center;verticalAlign=middle;whiteSpace=wrap;rounded=0;movable=1;resizable=1;rotatable=1;deletable=1;editable=1;locked=0;connectable=1;" vertex="1" parent="onOAcV3LlrqwpJdiy-Jt-6">
          <mxGeometry width="60" height="20" as="geometry" />
        </mxCell>
        <mxCell id="onOAcV3LlrqwpJdiy-Jt-7" value="Open Data Hub" style="rounded=0;whiteSpace=wrap;html=1;" vertex="1" parent="1">
          <mxGeometry x="-10" y="590" width="2130" height="40" as="geometry" />
        </mxCell>
      </root>
    </mxGraphModel>
  </diagram>
  <diagram id="j8CmbbGma-MxawJpuNJW" name="Deployment-Architecture">
    <mxGraphModel dx="771" dy="414" grid="1" gridSize="10" guides="1" tooltips="1" connect="1" arrows="1" fold="1" page="1" pageScale="1" pageWidth="827" pageHeight="1169" math="0" shadow="0">
      <root>
        <mxCell id="0" />
        <mxCell id="1" parent="0" />
        <mxCell id="vYIG166l5JjbjFVo5JrP-5" value="engine" style="rounded=0;whiteSpace=wrap;html=1;" vertex="1" parent="1">
          <mxGeometry x="460" y="260" width="120" height="60" as="geometry" />
        </mxCell>
        <mxCell id="vYIG166l5JjbjFVo5JrP-8" value="KServe" style="rounded=0;whiteSpace=wrap;html=1;" vertex="1" parent="1">
          <mxGeometry x="700" y="220" width="120" height="60" as="geometry" />
        </mxCell>
        <mxCell id="vYIG166l5JjbjFVo5JrP-9" value="engine" style="rounded=0;whiteSpace=wrap;html=1;" vertex="1" parent="1">
          <mxGeometry x="980" y="220" width="120" height="60" as="geometry" />
        </mxCell>
        <mxCell id="vYIG166l5JjbjFVo5JrP-10" value="OpenShift AI / Open Data Hub" style="rounded=0;whiteSpace=wrap;html=1;" vertex="1" parent="1">
          <mxGeometry x="600" y="290" width="510" height="30" as="geometry" />
        </mxCell>
        <mxCell id="vYIG166l5JjbjFVo5JrP-1" value="Azure" style="rounded=0;whiteSpace=wrap;html=1;" vertex="1" parent="1">
          <mxGeometry x="360" y="370" width="750" height="30" as="geometry" />
        </mxCell>
        <mxCell id="vYIG166l5JjbjFVo5JrP-3" value="Azure Red Hat OpenShift" style="rounded=0;whiteSpace=wrap;html=1;" vertex="1" parent="1">
          <mxGeometry x="360" y="331" width="750" height="30" as="geometry" />
        </mxCell>
      </root>
    </mxGraphModel>
  </diagram>
</mxfile>
